# xmcd
#
# Track frame offsets:
#	150
#	24109
#	44952
#	66935
#	77425
#	106749
#	122921
#	144375
#	161021
#	169317
#	178534
#	187950
#	198980
#	207312
#	232517
#	244834
#	256725
#	280666
#	291863
#	304681
#
# Disc length: 4520 seconds
#
# Revision: 1
# Processed by: cddbd v1.5.2PL0 Copyright (c) Steve Scherf et al.
# Submitted via: audiograbber 1.83.01
#
DISCID=1011a614
DTITLE=Various Composers - Albert Bolliger an der Domorgel Roskilde (SACD)
DYEAR=2005
DGENRE=Classical
TTITLE0=Nicolaus Bruhns - Präludium in e
TTITLE1=Ewaldt Hintz - Allein zu dir, Herr Jesu Christ
TTITLE2=Johan Lorentz - Präludium - Allemand - Courant - Sarabanda
TTITLE3=Johan Lorentz - Präludium in d
TTITLE4=Matthias Weckmann - Ach wir armen Sünder
TTITLE5=Martin Radeck - Praeambulum in d
TTITLE6=Martin Radeck - Jesus Christus, unser Heiland
TTITLE7=Martin Radeck - Canzone in D
TTITLE8=Johann Rudolf Radeck - Engellischer Mascharada
TTITLE9=Christian Geist - Gelobet seist du, Jesu Christ
TTITLE10=Christian Geist - Allein Gott in der Höh sei Ehr
TTITLE11=Christian Geist - Aus tiefer Not schrei ich zu dir
TTITLE12=Franz Tunder - Canzone in G
TTITLE13=Dietrich Buxtehude - Präludium in A - BuxWV 151
TTITLE14=Dietrich Buxtehude - Ach Herr, mich armen Sünder - BuxWV 178
TTITLE15=Dietrich Buxtehude - Es spricht der Unweisen Mund - BuxWV 187
TTITLE16=Dietrich Buxtehude - Präludium in a - BuxWV 158
TTITLE17=Dietrich Buxtehude - Aria: Rofilis - BuxWV 248
TTITLE18=Dietrich Buxtehude - Magnificat noni toni - BuxWV 205
TTITLE19=Dietrich Buxtehude - Präludium in E - BuxWV 141
EXTD=
EXTT0=
EXTT1=
EXTT2=
EXTT3=
EXTT4=
EXTT5=
EXTT6=
EXTT7=
EXTT8=
EXTT9=
EXTT10=
EXTT11=
EXTT12=
EXTT13=
EXTT14=
EXTT15=
EXTT16=
EXTT17=
EXTT18=
EXTT19=
PLAYORDER=
